<svg xmlns="http://www.w3.org/2000/svg" width="100%" height="100%" viewBox="0 0 9 10" fill="none">
  <path d="M3.28175 6.59992L4.20107 5.25446C5.13061 3.89083 6.06054 2.5306 6.99084 1.17378C7.26698 0.772644 7.63516 0.719235 8.03402 0.987417C8.18289 1.08855 8.33402 1.18401 8.48061 1.28742C8.84652 1.54651 8.92152 1.92605 8.66811 2.29765C7.67493 3.75674 6.67948 5.21469 5.68175 6.67151C5.19614 7.37984 4.71357 8.08856 4.23402 8.79765C3.9522 9.21583 3.58743 9.29651 3.17266 9.00447C2.28402 8.37947 1.40031 7.74727 0.521521 7.10787C0.127203 6.82265 0.0806116 6.45446 0.364703 6.05901C0.478339 5.90446 0.584021 5.74765 0.698794 5.59537C0.935158 5.28401 1.29084 5.2056 1.61925 5.42151C2.0022 5.67378 2.37039 5.94992 2.74539 6.21696L3.28175 6.59992Z" fill="#5EC26D"></path>
</svg>